<svg viewBox="0 0 401 401" xmlns="http://www.w3.org/2000/svg">
  <path
    d="M134.058 62.9356C119.168 65.4315 104.09 71.3832 92.4778 79.2548C83.9558 84.9185 71.4069 96.246 71.5005 97.9739C71.6878 100.278 79.7416 110.549 86.6716 117.173C99.3141 129.46 110.927 138.676 129.188 151.059C139.958 158.259 148.011 164.595 155.878 172.178C162.621 178.514 166.46 180.722 171.611 181.202C175.544 181.49 176.949 181.106 180.601 178.706C185.19 175.634 189.779 169.586 191.558 164.211C193.337 158.931 192.963 148.179 190.621 140.596C187.156 129.268 181.631 120.341 171.236 109.109C167.959 105.558 165.711 102.678 166.366 102.678C167.022 102.678 170.581 104.31 174.327 106.229C183.223 111.125 193.244 121.301 197.177 129.556C203.92 143.572 204.669 160.563 199.331 172.37C197.739 175.922 196.709 179.186 197.083 179.57C198.863 181.394 216.749 187.249 224.616 188.497C230.984 189.553 235.385 190.993 240.911 193.873C248.122 197.521 251.68 198.577 251.68 197.041C251.68 194.161 247.279 183.218 245.968 182.834C243.252 181.874 237.539 174.77 235.198 169.202C232.014 161.811 232.108 155.187 235.666 149.523C239.412 143.476 240.442 143.092 240.442 147.699C240.442 161.043 247.092 173.714 254.115 173.714C256.644 173.714 257.767 172.946 260.671 169.394C265.447 163.347 276.965 156.147 281.929 156.051C284.926 155.955 285.862 156.339 286.143 157.683C286.33 158.643 285.862 160.179 285.019 161.139C283.614 162.675 283.708 163.059 286.143 165.267C291.013 169.682 300.565 175.826 308.525 179.666C312.926 181.778 316.579 183.314 316.766 183.122C317.234 182.642 311.241 164.595 308.338 157.875C297.755 133.3 281.835 106.613 269.474 92.7901C253.366 74.935 231.452 65.3355 206.542 65.2395C196.615 65.2395 196.521 65.6235 203.451 72.1512C212.067 80.2148 217.124 91.4462 214.221 95.958C213.378 97.1099 212.442 96.438 208.883 92.1182C200.923 82.6146 194.648 77.1429 185.845 72.1512C175.169 66.1035 171.143 64.5675 160.373 62.8396C150.259 61.1117 144.172 61.1117 134.058 62.9356ZM172.079 83.3826C175.45 84.4386 180.882 86.7424 184.253 88.4704C190.434 91.7342 202.983 102.87 202.983 105.174C202.983 105.941 199.986 104.982 194.274 102.198C171.33 91.0622 151.008 87.8944 133.121 92.6941C130.312 93.4621 124.037 95.766 119.168 97.8779C110.552 101.622 106.525 102.582 106.525 100.854C106.525 100.374 108.398 97.8779 110.646 95.286C115.422 89.8143 124.412 84.9185 134.058 82.3267C143.235 79.9268 163.276 80.5027 172.079 83.3826ZM258.704 118.613C260.39 120.437 261.045 122.261 261.045 124.853V128.596H256.269C252.149 128.596 251.118 128.212 248.777 125.621C245.499 122.069 245.312 119.669 248.122 117.653C251.399 115.253 256.082 115.733 258.704 118.613Z" />
  <path
    d="M86.6716 141.46C75.5274 162.579 73.7481 169.106 73.0925 190.609C72.7179 200.593 72.9052 206.737 73.5608 207.889C74.4036 209.424 74.5909 209.136 75.1528 205.873C76.4639 198.481 81.4272 181.778 84.424 175.154C86.1097 171.41 90.6985 163.539 94.6317 157.587C98.5649 151.635 101.843 146.644 101.843 146.356C101.843 146.068 100.251 144.82 98.284 143.572C96.2237 142.324 94.0698 140.692 93.3206 139.924C89.5747 136.276 89.2937 136.372 86.6716 141.46Z" />
  <path
    d="M109.147 159.027C98.1903 170.834 90.8857 186.674 87.3271 206.257C85.5477 216.336 85.4541 236.879 87.2334 242.831L88.5445 247.151L89.1064 243.311C91.073 231.023 91.9158 226.992 94.4444 218.064C99.0331 201.649 102.685 193.681 112.238 179.474C118.418 170.258 121.041 167.091 124.131 164.883L126.378 163.347L120.572 159.411C117.388 157.203 114.298 155.475 113.642 155.475C113.08 155.475 111.02 157.107 109.147 159.027Z" />
  <path
    d="M271.908 173.138C268.818 175.346 266.195 177.554 266.008 178.226C265.446 179.954 278.183 188.785 287.922 193.489C307.307 202.897 319.762 205.776 341.583 205.776C356.847 205.68 364.058 204.625 369.677 201.553C372.861 199.825 371.644 197.137 367.804 197.521C354.319 198.577 336.713 198.769 332.218 197.713C312.271 193.297 293.166 183.89 281.179 172.658L277.433 169.202L271.908 173.138Z" />
  <path
    d="M131.061 175.922C127.971 179.186 124.131 183.506 122.539 185.522C119.261 189.841 110.927 206.064 108.96 212.208C106.244 220.752 103.903 230.063 102.685 237.551C100.906 248.014 101.093 271.821 102.966 276.813C104.652 281.325 105.12 280.653 105.963 272.589C106.338 269.133 106.993 264.622 107.462 262.51C107.93 260.398 108.773 256.078 109.334 252.91C110.833 244.847 116.077 229.007 120.01 220.56C124.318 211.152 133.028 198.769 142.018 189.265L149.229 181.49L142.954 175.634L136.68 169.874L131.061 175.922Z" />
  <path
    d="M320.98 175.922C320.98 176.018 321.823 178.514 322.853 181.394C323.883 184.274 324.726 186.769 324.726 186.865C324.726 186.961 328.566 187.921 333.342 189.073C342.987 191.377 359.47 192.817 357.971 191.185C357.503 190.705 351.79 188.401 345.329 186.193C338.96 183.986 330.813 180.722 327.348 178.898C323.883 177.074 320.98 175.73 320.98 175.922Z" />
  <path
    d="M186.688 187.153C179.196 193.201 172.547 194.065 162.152 190.417L158.219 189.073L152.132 195.025C138.459 208.656 126.847 231.599 121.322 255.79C118.044 270.573 118.137 302.444 121.509 308.107C122.352 309.547 122.633 308.203 124.318 293.708C127.971 262.414 139.583 236.015 157.751 217.776C167.303 208.08 172.454 204.433 176.106 204.433C179.103 204.433 185.19 206.832 185.19 208.08C185.19 208.56 183.13 210.288 180.695 211.92C167.209 220.848 150.259 245.615 143.61 266.062C138.74 280.749 137.897 287.085 137.991 307.148C138.178 330.666 139.864 339.978 146.888 356.009C149.978 363.017 150.914 363.401 149.322 357.065C148.667 354.377 148.292 343.626 148.292 328.746C148.386 306.572 148.573 303.884 150.821 293.036C153.443 280.557 156.159 273.837 164.4 260.398C167.022 256.174 169.644 250.894 170.206 248.686C171.236 244.751 173.858 241.391 189.123 224.88C193.15 220.464 196.428 216.336 196.428 215.664C196.428 213.36 201.391 209.52 209.445 205.489C221.057 199.729 222.275 198.193 216.375 197.137C210.662 196.177 197.645 189.361 195.304 186.193C194.18 184.562 192.775 183.314 192.307 183.41C191.745 183.41 189.217 185.138 186.688 187.153Z" />
  <path
    d="M257.299 185.426C257.393 186.578 260.202 193.297 262.637 198.193C269.286 211.44 274.905 234.383 275.748 251.47C277.246 281.613 264.323 302.252 242.784 303.98C232.295 304.94 223.492 300.236 218.154 291.02C216 287.085 215.626 285.453 215.626 278.829C215.626 272.781 216.094 270.285 217.686 267.214C220.121 262.606 225.459 257.518 228.83 256.654C232.108 255.79 239.412 256.942 242.128 258.766C243.346 259.63 244.563 260.014 244.844 259.726C245.874 258.67 241.566 253.102 237.633 250.51C225.74 242.831 211.224 244.943 201.11 255.886C187.812 270.285 185.284 292.46 194.648 311.947C199.518 321.931 210.475 333.738 219.559 338.634C231.452 345.066 246.717 347.082 260.483 344.106C290.263 337.674 315.361 305.708 322.479 265.294C324.258 255.214 324.913 225.456 323.509 218.736C322.853 215.376 322.572 215.184 318.358 214.512C300.097 211.728 278.089 201.457 259.921 187.058C258.423 186.002 257.299 185.234 257.299 185.426Z" />
</svg>