<svg width="400" height="400" viewBox="0 0 400 400" fill="none" xmlns="http://www.w3.org/2000/svg">
  <g clip-path="url(#clip0_649_48)">
    <rect x="211.021" y="292.657" width="28.8281" height="18.0756" rx="7.83769"
      transform="rotate(-32.2331 211.021 292.657)" fill="#363636" />
    <g filter="url(#filter0_d_649_48)">
      <path
        d="M123.346 51.3101C182.339 18.6094 252.614 59.255 252.614 59.255L231.201 225.432C231.201 225.432 184.5 213.324 158.153 210.4C143.092 232.776 139.174 267.036 138.156 282.976C137.788 288.733 138.92 294.443 141.1 299.784L143.558 305.806C147.196 314.72 154.776 321.432 164.064 323.967L168.183 325.09C181.408 328.699 195.188 321.55 199.855 308.66V308.66C202.311 301.877 207.443 296.4 214.052 293.509L233.321 285.079C239.446 282.399 245.766 288.435 243.371 294.677L234.97 316.563C230.33 328.652 222.984 339.518 213.495 348.329L211.683 350.012C206.395 354.922 200.37 358.974 193.829 362.021L190.814 363.425C171.741 372.308 149.49 371.07 131.521 360.125V360.125C122.403 354.571 114.848 346.789 109.567 337.51L106.233 331.651C104.216 328.108 102.457 324.47 101.05 320.644C88.3636 286.148 27.1815 104.617 123.346 51.3101Z"
        fill="url(#paint0_linear_649_48)" />
    </g>
    <g filter="url(#filter1_d_649_48)">
      <path
        d="M107.817 291.695C130.722 272.212 175.774 218.765 186.299 206.167C187.294 204.976 186.591 203.179 185.057 202.941L158.301 198.789C156.351 198.487 154.416 199.339 153.314 200.976C147.62 209.433 128.987 236.154 107.817 256.362C95.1327 268.469 84.1398 286.666 23.8115 306.498C17.4521 308.588 9.54695 313.396 4.63666 316.618C3.06348 317.65 3.72968 319.978 5.60933 320.062C15.7928 320.52 37.1011 321.242 46.1249 319.783C60.9645 317.385 94.234 303.249 107.817 291.695Z"
        fill="white" />
    </g>
    <g filter="url(#filter2_dd_649_48)">
      <path
        d="M209.392 69.0738C211.78 49.6948 225.216 33.4049 244.346 29.4925C278.074 22.5947 331.352 16.5082 362.867 37.2777C422.017 76.2596 395.87 120.805 383.112 136.998C379.648 141.395 375.277 144.892 370.665 148.063L296.964 198.734L238.456 238.958C227.424 246.543 212.2 241.358 208.091 228.616L201.582 208.434C197.118 194.591 195.727 179.942 197.506 165.507L209.392 69.0738Z"
        fill="#168773" />
    </g>
    <g filter="url(#filter3_d_649_48)">
      <path
        d="M103.518 130.665C102.421 130.186 102.027 128.828 102.775 127.894C107.399 122.124 114.486 120.451 124.226 122.471C125.537 122.743 126.145 124.243 125.366 125.332C118.269 135.246 110.642 133.781 103.518 130.665Z"
        fill="#363636" />
    </g>
    <path
      d="M108.393 127.993C108.393 127.038 109.168 126.263 110.123 126.263V126.263C111.078 126.263 111.853 127.038 111.853 127.993V127.993C111.853 128.948 111.078 129.723 110.123 129.723V129.723C109.168 129.723 108.393 128.948 108.393 127.993V127.993Z"
      fill="white" />
    <path
      d="M165.17 179.16C166.842 176.962 169.979 176.536 172.177 178.209L193.322 194.299C195.52 195.971 195.946 199.108 194.274 201.305L175.814 225.565C174.142 227.763 171.005 228.189 168.807 226.517L147.662 210.427C145.464 208.754 145.038 205.617 146.71 203.42L165.17 179.16Z"
      fill="#16947E" />
  </g>
  <defs>
    <filter id="filter0_d_649_48" x="66.1952" y="38.5844" width="186.419" height="334.723" filterUnits="userSpaceOnUse"
      color-interpolation-filters="sRGB">
      <feFlood flood-opacity="0" result="BackgroundImageFix" />
      <feColorMatrix in="SourceAlpha" type="matrix" values="0 0 0 0 0 0 0 0 0 0 0 0 0 0 0 0 0 0 127 0"
        result="hardAlpha" />
      <feOffset dx="-2" dy="2" />
      <feGaussianBlur stdDeviation="1" />
      <feComposite in2="hardAlpha" operator="out" />
      <feColorMatrix type="matrix" values="0 0 0 0 0 0 0 0 0 0 0 0 0 0 0 0 0 0 0.25 0" />
      <feBlend mode="normal" in2="BackgroundImageFix" result="effect1_dropShadow_649_48" />
      <feBlend mode="normal" in="SourceGraphic" in2="effect1_dropShadow_649_48" result="shape" />
    </filter>
    <filter id="filter1_d_649_48" x="-1.24316" y="193.729" width="193.004" height="131.921" filterUnits="userSpaceOnUse"
      color-interpolation-filters="sRGB">
      <feFlood flood-opacity="0" result="BackgroundImageFix" />
      <feColorMatrix in="SourceAlpha" type="matrix" values="0 0 0 0 0 0 0 0 0 0 0 0 0 0 0 0 0 0 127 0"
        result="hardAlpha" />
      <feOffset />
      <feGaussianBlur stdDeviation="2.5" />
      <feComposite in2="hardAlpha" operator="out" />
      <feColorMatrix type="matrix" values="0 0 0 0 0 0 0 0 0 0 0 0 0 0 0 0 0 0 0.4 0" />
      <feBlend mode="normal" in2="BackgroundImageFix" result="effect1_dropShadow_649_48" />
      <feBlend mode="normal" in="SourceGraphic" in2="effect1_dropShadow_649_48" result="shape" />
    </filter>
    <filter id="filter2_dd_649_48" x="192.755" y="21" width="209.245" height="225.488" filterUnits="userSpaceOnUse"
      color-interpolation-filters="sRGB">
      <feFlood flood-opacity="0" result="BackgroundImageFix" />
      <feColorMatrix in="SourceAlpha" type="matrix" values="0 0 0 0 0 0 0 0 0 0 0 0 0 0 0 0 0 0 127 0"
        result="hardAlpha" />
      <feOffset dx="1" dy="3" />
      <feGaussianBlur stdDeviation="0.5" />
      <feComposite in2="hardAlpha" operator="out" />
      <feColorMatrix type="matrix" values="0 0 0 0 0 0 0 0 0 0 0 0 0 0 0 0 0 0 0.25 0" />
      <feBlend mode="normal" in2="BackgroundImageFix" result="effect1_dropShadow_649_48" />
      <feColorMatrix in="SourceAlpha" type="matrix" values="0 0 0 0 0 0 0 0 0 0 0 0 0 0 0 0 0 0 127 0"
        result="hardAlpha" />
      <feOffset dx="-2" />
      <feGaussianBlur stdDeviation="1" />
      <feComposite in2="hardAlpha" operator="out" />
      <feColorMatrix type="matrix" values="0 0 0 0 0 0 0 0 0 0 0 0 0 0 0 0 0 0 0.1 0" />
      <feBlend mode="normal" in2="effect1_dropShadow_649_48" result="effect2_dropShadow_649_48" />
      <feBlend mode="normal" in="SourceGraphic" in2="effect2_dropShadow_649_48" result="shape" />
    </filter>
    <filter id="filter3_d_649_48" x="102.391" y="121.651" width="23.3204" height="12.3463" filterUnits="userSpaceOnUse"
      color-interpolation-filters="sRGB">
      <feFlood flood-opacity="0" result="BackgroundImageFix" />
      <feColorMatrix in="SourceAlpha" type="matrix" values="0 0 0 0 0 0 0 0 0 0 0 0 0 0 0 0 0 0 127 0"
        result="hardAlpha" />
      <feOffset dy="1" />
      <feComposite in2="hardAlpha" operator="out" />
      <feColorMatrix type="matrix" values="0 0 0 0 0 0 0 0 0 0 0 0 0 0 0 0 0 0 0.25 0" />
      <feBlend mode="normal" in2="BackgroundImageFix" result="effect1_dropShadow_649_48" />
      <feBlend mode="normal" in="SourceGraphic" in2="effect1_dropShadow_649_48" result="shape" />
    </filter>
    <linearGradient id="paint0_linear_649_48" x1="70.1299" y1="43.1299" x2="253.247" y2="377.546"
      gradientUnits="userSpaceOnUse">
      <stop stop-color="#22AE96" />
      <stop offset="1" stop-color="#0B715F" />
    </linearGradient>
    <clipPath id="clip0_649_48">
      <rect width="400" height="400" fill="white" />
    </clipPath>
  </defs>
</svg>