<svg id="Vrstva_1" data-name="Vrstva 1" xmlns="http://www.w3.org/2000/svg" viewBox="0 0 100 108">
  <defs>
    <style>
      .cls-1 {
        fill: #ececec;
      }

      .cls-2, .cls-4 {
        fill: #363a43;
      }

      .cls-2 {
        stroke: #ececec;
        stroke-miterlimit: 10;
        stroke-width: 2px;
      }

      .cls-3 {
        fill: #61dafb;
      }

      .cls-4 {
        font-size: 30px;
        font-family: OpenSans-ExtraBold, Open Sans ExtraBold;
        font-weight: 800;
      }
    </style>
  </defs>
  <title>404</title>
  <path class="cls-1" d="M506.93,617h80.14a9.86,9.86,0,0,0,9.86-9.87l-4-74.13h-92l-4,74A10,10,0,0,0,506.93,617Z" transform="translate(-496.93 -533)"/>
  <g>
    <circle class="cls-2" cx="50" cy="82" r="25"/>
    <path class="cls-3" d="M539.35,607.61a2.22,2.22,0,1,1-2.21-2.21A2.21,2.21,0,0,1,539.35,607.61Zm-2.21,5.17a2.22,2.22,0,1,0,2.21,2.22A2.23,2.23,0,0,0,537.14,612.78Zm0,7.39a2.22,2.22,0,1,0,2.21,2.22A2.22,2.22,0,0,0,537.14,620.17Zm4.43-10.89h16.25a.74.74,0,0,0,.74-.74v-1.85a.74.74,0,0,0-.74-.74H541.57a.74.74,0,0,0-.74.74v1.85A.74.74,0,0,0,541.57,609.28Zm0,7.38h16.25a.74.74,0,0,0,.74-.74v-1.84a.74.74,0,0,0-.74-.74H541.57a.74.74,0,0,0-.74.74v1.84A.74.74,0,0,0,541.57,616.66Zm0,7.39h16.25a.74.74,0,0,0,.74-.74v-1.85a.74.74,0,0,0-.74-.74H541.57a.74.74,0,0,0-.74.74v1.85A.74.74,0,0,0,541.57,624.05Z" transform="translate(-496.93 -533)"/>
  </g>
  <text class="cls-4" transform="translate(23.63 40.82)">404</text>
</svg>
